<svg width="0" height="0">
  <symbol xmlns="http://www.w3.org/2000/svg" viewBox="0 0 60 60" id="instagram">
    <g clip-path="url(#clip0_19_2)">
      <path fill-rule="evenodd" clip-rule="evenodd" d="M0 30C0 13.4312 13.4312 0 30 0C46.5688 0 60 13.4312 60 30C60 46.5688 46.5688 60 30 60C13.4312 60 0 46.5688 0 30ZM30.0012 14C25.6562 14 25.1112 14.0188 23.4037 14.0963C21.7012 14.175 20.5375 14.445 19.5212 14.84C18.4532 15.2412 17.4856 15.8709 16.6862 16.685C15.8724 17.4843 15.2423 18.4513 14.84 19.5187C14.4425 20.5362 14.1725 21.7 14.0963 23.4025C14.02 25.1088 14 25.655 14 30C14 34.345 14.02 34.8888 14.0963 36.5963C14.175 38.2988 14.445 39.4625 14.84 40.4787C15.2414 41.5468 15.871 42.5143 16.685 43.3138C17.4839 44.1281 18.451 44.7582 19.5187 45.16C20.5362 45.5562 21.7 45.825 23.4025 45.9037C25.11 45.9812 25.655 46 30 46C34.345 46 34.8887 45.9812 36.595 45.9037C38.2987 45.825 39.4625 45.5562 40.4812 45.16C41.5486 44.7582 42.5153 44.1281 43.3138 43.3138C44.1276 42.5144 44.7576 41.5474 45.16 40.48C45.5537 39.4625 45.8225 38.2988 45.9037 36.5963C45.98 34.89 46 34.3462 46 30C46 25.655 45.98 25.11 45.9037 23.4025C45.8237 21.6988 45.5537 20.5362 45.16 19.5187C44.7577 18.4513 44.1277 17.4843 43.3138 16.685C42.515 15.8707 41.5478 15.241 40.48 14.84C39.46 14.445 38.2963 14.175 36.5925 14.0963C34.8863 14.0188 34.3425 14 29.9962 14H30.0012Z"></path>
      <path fill-rule="evenodd" clip-rule="evenodd" d="M28.5663 16.8838H30C34.2725 16.8838 34.7788 16.8988 36.465 16.975C38.0263 17.0463 38.8725 17.3075 39.4363 17.5263C40.1825 17.8163 40.715 18.1638 41.275 18.7225C41.835 19.2825 42.1813 19.8163 42.4725 20.5638C42.6913 21.1263 42.9525 21.9725 43.0225 23.5325C43.1 25.22 43.1163 25.7263 43.1163 29.9963C43.1163 34.2663 43.1 34.7738 43.0238 36.4588C42.9525 38.02 42.6913 38.8663 42.4725 39.43C42.2158 40.1244 41.8066 40.7523 41.275 41.2675C40.7598 41.7991 40.1319 42.2083 39.4375 42.465C38.8725 42.685 38.025 42.945 36.4663 43.015C34.7788 43.0925 34.2725 43.1088 30 43.1088C25.7275 43.1088 25.2213 43.0925 23.535 43.0163C21.975 42.9438 21.1288 42.6838 20.5638 42.4638C19.8687 42.2076 19.24 41.7988 18.7238 41.2675C18.1923 40.7517 17.7831 40.1234 17.5263 39.4288C17.3075 38.8663 17.0463 38.0188 16.9763 36.4588C16.8988 34.7713 16.8838 34.265 16.8838 29.9925C16.8838 25.72 16.8988 25.2163 16.975 23.53C17.0463 21.9688 17.3075 21.1225 17.5263 20.5588C17.7827 19.8635 18.1919 19.2347 18.7238 18.7188C19.2401 18.1873 19.8688 17.7782 20.5638 17.5213C21.1275 17.3013 21.975 17.0413 23.535 16.97C25.01 16.9025 25.5825 16.8825 28.565 16.88V16.8838H28.5663ZM38.5413 19.54C38.032 19.54 37.5437 19.7423 37.1836 20.1024C36.8235 20.4624 36.6213 20.9508 36.6213 21.46C36.6213 21.9692 36.8235 22.4576 37.1836 22.8177C37.5437 23.1777 38.032 23.38 38.5413 23.38C39.0505 23.38 39.5388 23.1777 39.8989 22.8177C40.259 22.4576 40.4613 21.9692 40.4613 21.46C40.4613 20.9508 40.259 20.4624 39.8989 20.1024C39.5388 19.7423 39.0505 19.54 38.5413 19.54ZM30.0013 21.7838C28.9137 21.7703 27.8342 21.973 26.8256 22.3799C25.8169 22.7868 24.899 23.3899 24.1252 24.1543C23.3514 24.9186 22.737 25.829 22.3177 26.8325C21.8983 27.8361 21.6824 28.913 21.6824 30.0006C21.6824 31.0883 21.8983 32.1651 22.3177 33.1687C22.737 34.1723 23.3514 35.0827 24.1252 35.847C24.899 36.6113 25.8169 37.2145 26.8256 37.6214C27.8342 38.0283 28.9137 38.2309 30.0013 38.2175C32.163 38.1908 34.2271 37.3134 35.7463 35.7753C37.2655 34.2373 38.1174 32.1625 38.1174 30.0006C38.1174 27.8388 37.2655 25.764 35.7463 24.2259C34.2271 22.6879 32.163 21.8104 30.0013 21.7838Z"></path>
      <path fill-rule="evenodd" clip-rule="evenodd" d="M30.0013 24.6663C31.4159 24.6663 32.7725 25.2282 33.7728 26.2285C34.7731 27.2288 35.335 28.5854 35.335 30C35.335 31.4146 34.7731 32.7713 33.7728 33.7715C32.7725 34.7718 31.4159 35.3338 30.0013 35.3338C28.5867 35.3338 27.23 34.7718 26.2297 33.7715C25.2295 32.7713 24.6675 31.4146 24.6675 30C24.6675 28.5854 25.2295 27.2288 26.2297 26.2285C27.23 25.2282 28.5867 24.6663 30.0013 24.6663Z"></path>
    </g>
    <defs>
      <clipPath id="clip0_19_2">
        <rect width="60" height="60"></rect>
      </clipPath>
    </defs>
  </symbol>

  <symbol xmlns="http://www.w3.org/2000/svg" viewBox="0 0 60 60" id="telegram">
    <g clip-path="url(#clip0_19_6)">
      <path d="M30 0.9375C13.9444 0.9375 0.9375 13.9462 0.9375 30C0.9375 46.0538 13.9462 59.0625 30 59.0625C46.0556 59.0625 59.0625 46.0538 59.0625 30C59.0625 13.9462 46.0538 0.9375 30 0.9375ZM44.2744 20.8481L39.5044 43.3256C39.1519 44.9194 38.2031 45.3056 36.8794 44.5556L29.6137 39.2006L26.1094 42.5756C25.7231 42.9619 25.395 43.29 24.645 43.29L25.1606 35.895L38.625 23.73C39.2119 23.2144 38.4956 22.9219 37.7213 23.4375L21.0806 33.9131L13.9088 31.6744C12.3506 31.1831 12.315 30.1162 14.2369 29.3662L42.2569 18.5606C43.5581 18.0919 44.6944 18.8775 44.2725 20.8463L44.2744 20.8481Z"></path>
    </g>
    <defs>
      <clipPath id="clip0_19_6">
        <rect width="60" height="60"></rect>
      </clipPath>
    </defs>
  </symbol>

  <symbol xmlns="http://www.w3.org/2000/svg" viewBox="0 0 60 60" id="whatsapp">
    <g clip-path="url(#clip0_19_10)">
      <path fill-rule="evenodd" clip-rule="evenodd" d="M30 60C13.4312 60 0 46.5688 0 30C0 13.4312 13.4312 0 30 0C46.5688 0 60 13.4312 60 30C60 46.5688 46.5688 60 30 60ZM30.9888 46.69C40.825 46.6863 48.8238 38.685 48.8275 28.8525C48.8351 26.5081 48.3776 24.1855 47.4816 22.0191C46.5856 19.8526 45.2688 17.8854 43.6075 16.2312C41.9547 14.568 39.9884 13.2492 37.8223 12.3512C35.6563 11.4532 33.3336 10.994 30.9888 11C21.1563 11 13.1538 19.0025 13.15 28.8375C13.146 31.968 13.9673 35.0443 15.5313 37.7562L13 47L22.4563 44.5188C25.0719 45.9434 28.0028 46.6899 30.9812 46.69H30.9888Z"></path>
      <path fill-rule="evenodd" clip-rule="evenodd" d="M22.895 41.29L17.2825 42.7625L18.7812 37.29L18.4287 36.73C16.9434 34.3662 16.1572 31.6304 16.1612 28.8387C16.165 20.6637 22.8162 14.0137 30.995 14.0137C32.943 14.009 34.8725 14.3908 36.6719 15.1371C38.4712 15.8833 40.1046 16.9792 41.4775 18.3612C42.858 19.7362 43.9522 21.3713 44.6967 23.1718C45.4413 24.9724 45.8213 26.9028 45.815 28.8512C45.8125 37.0262 39.1612 43.6775 30.99 43.6775H30.9825C28.3225 43.6775 25.7125 42.9625 23.4362 41.6112L22.895 41.29ZM39.9762 33.0937C39.8637 32.9075 39.5675 32.7962 39.1212 32.5737C38.6762 32.35 36.4837 31.2725 36.0762 31.1237C35.6675 30.9737 35.37 30.9 35.0725 31.3462C34.7762 31.7925 33.9225 32.7962 33.6612 33.0937C33.4012 33.3912 33.1412 33.4287 32.6962 33.2062C32.25 32.9812 30.8137 32.5112 29.1112 30.9937C27.7862 29.8112 26.8912 28.3512 26.6312 27.9062C26.3725 27.4587 26.6037 27.2187 26.8275 26.995C27.0275 26.795 27.2737 26.475 27.4962 26.215C27.7187 25.955 27.7937 25.7687 27.9412 25.4712C28.0912 25.1737 28.0162 24.9137 27.9037 24.69C27.7937 24.4675 26.9012 22.2737 26.53 21.3812C26.1675 20.5112 25.8012 20.6287 25.5275 20.615C25.2427 20.6031 24.9576 20.5981 24.6725 20.6C24.3762 20.6 23.8925 20.7112 23.485 21.1575C23.0762 21.6037 21.925 22.6825 21.925 24.8762C21.925 27.07 23.5212 29.1887 23.745 29.4875C23.9675 29.785 26.8875 34.2875 31.3587 36.2175C32.4212 36.6762 33.2525 36.9512 33.9 37.1562C34.9675 37.495 35.94 37.4475 36.7075 37.3325C37.5637 37.205 39.345 36.255 39.7162 35.2137C40.0875 34.1725 40.0875 33.28 39.9762 33.0937Z"></path>
    </g>
    <defs>
      <clipPath id="clip0_19_10">
        <rect width="60" height="60"></rect>
      </clipPath>
    </defs>
  </symbol>

  <symbol xmlns="http://www.w3.org/2000/svg" viewBox="0 0 60 60" id="vk">
    <g clip-path="url(#clip0_19_8)">
      <path fill-rule="evenodd" clip-rule="evenodd" d="M0 30C0 13.4312 13.4312 0 30 0C46.5688 0 60 13.4312 60 30C60 46.5688 46.5688 60 30 60C13.4312 60 0 46.5688 0 30ZM31.57 39.845C31.57 39.845 32.1475 39.7825 32.4425 39.47C32.7138 39.185 32.705 38.645 32.705 38.645C32.705 38.645 32.6675 36.1275 33.8587 35.755C35.0337 35.39 36.54 38.19 38.14 39.2675C39.3475 40.0812 40.265 39.9038 40.265 39.9038L44.54 39.845C44.54 39.845 46.775 39.71 45.715 37.985C45.6275 37.8438 45.0962 36.7075 42.5375 34.3762C39.8562 31.935 40.2163 32.3288 43.4438 28.1063C45.41 25.5338 46.195 23.9638 45.95 23.2938C45.7162 22.65 44.27 22.8212 44.27 22.8212L39.4587 22.85C39.4587 22.85 39.1025 22.8025 38.8375 22.9575C38.58 23.11 38.4125 23.465 38.4125 23.465C38.4125 23.465 37.6513 25.4538 36.635 27.1475C34.4925 30.7175 33.6375 30.9063 33.2862 30.685C32.4712 30.1675 32.6737 28.6087 32.6737 27.5012C32.6737 24.0387 33.21 22.5962 31.6337 22.2237C31.1112 22.0987 30.7263 22.0175 29.3875 22.0038C27.6713 21.9875 26.2175 22.01 25.395 22.4038C24.8475 22.6675 24.425 23.2538 24.6825 23.2888C25 23.33 25.72 23.4787 26.1025 23.9887C26.595 24.6475 26.5775 26.1262 26.5775 26.1262C26.5775 26.1262 26.8613 30.2012 25.915 30.705C25.2688 31.0525 24.3788 30.345 22.4675 27.105C21.49 25.445 20.7512 23.6112 20.7512 23.6112C20.7512 23.6112 20.6088 23.2687 20.3538 23.0837C20.045 22.8612 19.615 22.7925 19.615 22.7925L15.0437 22.8212C15.0437 22.8212 14.3562 22.84 14.1037 23.1337C13.88 23.3925 14.0875 23.9313 14.0875 23.9313C14.0875 23.9313 17.6662 32.1525 21.72 36.2963C25.4375 40.0938 29.6575 39.8463 29.6575 39.8463H31.57V39.845Z"></path>
    </g>
    <defs>
      <clipPath id="clip0_19_8">
        <rect width="60" height="60"></rect>
      </clipPath>
    </defs>
  </symbol>
</svg>