<svg width="60" height="60" viewBox="0 0 60 60" fill="none" xmlns="http://www.w3.org/2000/svg">
<g clip-path="url(#clip0_19_2)">
<path fill-rule="evenodd" clip-rule="evenodd" d="M0 30C0 13.4312 13.4312 0 30 0C46.5688 0 60 13.4312 60 30C60 46.5688 46.5688 60 30 60C13.4312 60 0 46.5688 0 30ZM30.0012 14C25.6562 14 25.1112 14.0188 23.4037 14.0963C21.7012 14.175 20.5375 14.445 19.5212 14.84C18.4532 15.2412 17.4856 15.8709 16.6862 16.685C15.8724 17.4843 15.2423 18.4513 14.84 19.5187C14.4425 20.5362 14.1725 21.7 14.0963 23.4025C14.02 25.1088 14 25.655 14 30C14 34.345 14.02 34.8888 14.0963 36.5963C14.175 38.2988 14.445 39.4625 14.84 40.4787C15.2414 41.5468 15.871 42.5143 16.685 43.3138C17.4839 44.1281 18.451 44.7582 19.5187 45.16C20.5362 45.5562 21.7 45.825 23.4025 45.9037C25.11 45.9812 25.655 46 30 46C34.345 46 34.8887 45.9812 36.595 45.9037C38.2987 45.825 39.4625 45.5562 40.4812 45.16C41.5486 44.7582 42.5153 44.1281 43.3138 43.3138C44.1276 42.5144 44.7576 41.5474 45.16 40.48C45.5537 39.4625 45.8225 38.2988 45.9037 36.5963C45.98 34.89 46 34.3462 46 30C46 25.655 45.98 25.11 45.9037 23.4025C45.8237 21.6988 45.5537 20.5362 45.16 19.5187C44.7577 18.4513 44.1277 17.4843 43.3138 16.685C42.515 15.8707 41.5478 15.241 40.48 14.84C39.46 14.445 38.2963 14.175 36.5925 14.0963C34.8863 14.0188 34.3425 14 29.9962 14H30.0012Z" fill="black"/>
<path fill-rule="evenodd" clip-rule="evenodd" d="M28.5663 16.8838H30C34.2725 16.8838 34.7788 16.8988 36.465 16.975C38.0263 17.0463 38.8725 17.3075 39.4363 17.5263C40.1825 17.8163 40.715 18.1638 41.275 18.7225C41.835 19.2825 42.1813 19.8163 42.4725 20.5638C42.6913 21.1263 42.9525 21.9725 43.0225 23.5325C43.1 25.22 43.1163 25.7263 43.1163 29.9963C43.1163 34.2663 43.1 34.7738 43.0238 36.4588C42.9525 38.02 42.6913 38.8663 42.4725 39.43C42.2158 40.1244 41.8066 40.7523 41.275 41.2675C40.7598 41.7991 40.1319 42.2083 39.4375 42.465C38.8725 42.685 38.025 42.945 36.4663 43.015C34.7788 43.0925 34.2725 43.1088 30 43.1088C25.7275 43.1088 25.2213 43.0925 23.535 43.0163C21.975 42.9438 21.1288 42.6838 20.5638 42.4638C19.8687 42.2076 19.24 41.7988 18.7238 41.2675C18.1923 40.7517 17.7831 40.1234 17.5263 39.4288C17.3075 38.8663 17.0463 38.0188 16.9763 36.4588C16.8988 34.7713 16.8838 34.265 16.8838 29.9925C16.8838 25.72 16.8988 25.2163 16.975 23.53C17.0463 21.9688 17.3075 21.1225 17.5263 20.5588C17.7827 19.8635 18.1919 19.2347 18.7238 18.7188C19.2401 18.1873 19.8688 17.7782 20.5638 17.5213C21.1275 17.3013 21.975 17.0413 23.535 16.97C25.01 16.9025 25.5825 16.8825 28.565 16.88V16.8838H28.5663ZM38.5413 19.54C38.032 19.54 37.5437 19.7423 37.1836 20.1024C36.8235 20.4624 36.6213 20.9508 36.6213 21.46C36.6213 21.9692 36.8235 22.4576 37.1836 22.8177C37.5437 23.1777 38.032 23.38 38.5413 23.38C39.0505 23.38 39.5388 23.1777 39.8989 22.8177C40.259 22.4576 40.4613 21.9692 40.4613 21.46C40.4613 20.9508 40.259 20.4624 39.8989 20.1024C39.5388 19.7423 39.0505 19.54 38.5413 19.54ZM30.0013 21.7838C28.9137 21.7703 27.8342 21.973 26.8256 22.3799C25.8169 22.7868 24.899 23.3899 24.1252 24.1543C23.3514 24.9186 22.737 25.829 22.3177 26.8325C21.8983 27.8361 21.6824 28.913 21.6824 30.0006C21.6824 31.0883 21.8983 32.1651 22.3177 33.1687C22.737 34.1723 23.3514 35.0827 24.1252 35.847C24.899 36.6113 25.8169 37.2145 26.8256 37.6214C27.8342 38.0283 28.9137 38.2309 30.0013 38.2175C32.163 38.1908 34.2271 37.3134 35.7463 35.7753C37.2655 34.2373 38.1174 32.1625 38.1174 30.0006C38.1174 27.8388 37.2655 25.764 35.7463 24.2259C34.2271 22.6879 32.163 21.8104 30.0013 21.7838Z" fill="black"/>
<path fill-rule="evenodd" clip-rule="evenodd" d="M30.0013 24.6663C31.4159 24.6663 32.7725 25.2282 33.7728 26.2285C34.7731 27.2288 35.335 28.5854 35.335 30C35.335 31.4146 34.7731 32.7713 33.7728 33.7715C32.7725 34.7718 31.4159 35.3338 30.0013 35.3338C28.5867 35.3338 27.23 34.7718 26.2297 33.7715C25.2295 32.7713 24.6675 31.4146 24.6675 30C24.6675 28.5854 25.2295 27.2288 26.2297 26.2285C27.23 25.2282 28.5867 24.6663 30.0013 24.6663Z" fill="black"/>
</g>
<defs>
<clipPath id="clip0_19_2">
<rect width="60" height="60" fill="white"/>
</clipPath>
</defs>
</svg>
