<svg width="60" height="60" viewBox="0 0 60 60" fill="none" xmlns="http://www.w3.org/2000/svg">
<g clip-path="url(#clip0_19_8)">
<path fill-rule="evenodd" clip-rule="evenodd" d="M0 30C0 13.4312 13.4312 0 30 0C46.5688 0 60 13.4312 60 30C60 46.5688 46.5688 60 30 60C13.4312 60 0 46.5688 0 30ZM31.57 39.845C31.57 39.845 32.1475 39.7825 32.4425 39.47C32.7138 39.185 32.705 38.645 32.705 38.645C32.705 38.645 32.6675 36.1275 33.8587 35.755C35.0337 35.39 36.54 38.19 38.14 39.2675C39.3475 40.0812 40.265 39.9038 40.265 39.9038L44.54 39.845C44.54 39.845 46.775 39.71 45.715 37.985C45.6275 37.8438 45.0962 36.7075 42.5375 34.3762C39.8562 31.935 40.2163 32.3288 43.4438 28.1063C45.41 25.5338 46.195 23.9638 45.95 23.2938C45.7162 22.65 44.27 22.8212 44.27 22.8212L39.4587 22.85C39.4587 22.85 39.1025 22.8025 38.8375 22.9575C38.58 23.11 38.4125 23.465 38.4125 23.465C38.4125 23.465 37.6513 25.4538 36.635 27.1475C34.4925 30.7175 33.6375 30.9063 33.2862 30.685C32.4712 30.1675 32.6737 28.6087 32.6737 27.5012C32.6737 24.0387 33.21 22.5962 31.6337 22.2237C31.1112 22.0987 30.7263 22.0175 29.3875 22.0038C27.6713 21.9875 26.2175 22.01 25.395 22.4038C24.8475 22.6675 24.425 23.2538 24.6825 23.2888C25 23.33 25.72 23.4787 26.1025 23.9887C26.595 24.6475 26.5775 26.1262 26.5775 26.1262C26.5775 26.1262 26.8613 30.2012 25.915 30.705C25.2688 31.0525 24.3788 30.345 22.4675 27.105C21.49 25.445 20.7512 23.6112 20.7512 23.6112C20.7512 23.6112 20.6088 23.2687 20.3538 23.0837C20.045 22.8612 19.615 22.7925 19.615 22.7925L15.0437 22.8212C15.0437 22.8212 14.3562 22.84 14.1037 23.1337C13.88 23.3925 14.0875 23.9313 14.0875 23.9313C14.0875 23.9313 17.6662 32.1525 21.72 36.2963C25.4375 40.0938 29.6575 39.8463 29.6575 39.8463H31.57V39.845Z" fill="black"/>
</g>
<defs>
<clipPath id="clip0_19_8">
<rect width="60" height="60" fill="white"/>
</clipPath>
</defs>
</svg>
