<svg width="60" height="60" viewBox="0 0 60 60" fill="none" xmlns="http://www.w3.org/2000/svg">
<g clip-path="url(#clip0_19_10)">
<path fill-rule="evenodd" clip-rule="evenodd" d="M30 60C13.4312 60 0 46.5688 0 30C0 13.4312 13.4312 0 30 0C46.5688 0 60 13.4312 60 30C60 46.5688 46.5688 60 30 60ZM30.9888 46.69C40.825 46.6863 48.8238 38.685 48.8275 28.8525C48.8351 26.5081 48.3776 24.1855 47.4816 22.0191C46.5856 19.8526 45.2688 17.8854 43.6075 16.2312C41.9547 14.568 39.9884 13.2492 37.8223 12.3512C35.6563 11.4532 33.3336 10.994 30.9888 11C21.1563 11 13.1538 19.0025 13.15 28.8375C13.146 31.968 13.9673 35.0443 15.5313 37.7562L13 47L22.4563 44.5188C25.0719 45.9434 28.0028 46.6899 30.9812 46.69H30.9888Z" fill="black"/>
<path fill-rule="evenodd" clip-rule="evenodd" d="M22.895 41.29L17.2825 42.7625L18.7812 37.29L18.4287 36.73C16.9434 34.3662 16.1572 31.6304 16.1612 28.8387C16.165 20.6637 22.8162 14.0137 30.995 14.0137C32.943 14.009 34.8725 14.3908 36.6719 15.1371C38.4712 15.8833 40.1046 16.9792 41.4775 18.3612C42.858 19.7362 43.9522 21.3713 44.6967 23.1718C45.4413 24.9724 45.8213 26.9028 45.815 28.8512C45.8125 37.0262 39.1612 43.6775 30.99 43.6775H30.9825C28.3225 43.6775 25.7125 42.9625 23.4362 41.6112L22.895 41.29ZM39.9762 33.0937C39.8637 32.9075 39.5675 32.7962 39.1212 32.5737C38.6762 32.35 36.4837 31.2725 36.0762 31.1237C35.6675 30.9737 35.37 30.9 35.0725 31.3462C34.7762 31.7925 33.9225 32.7962 33.6612 33.0937C33.4012 33.3912 33.1412 33.4287 32.6962 33.2062C32.25 32.9812 30.8137 32.5112 29.1112 30.9937C27.7862 29.8112 26.8912 28.3512 26.6312 27.9062C26.3725 27.4587 26.6037 27.2187 26.8275 26.995C27.0275 26.795 27.2737 26.475 27.4962 26.215C27.7187 25.955 27.7937 25.7687 27.9412 25.4712C28.0912 25.1737 28.0162 24.9137 27.9037 24.69C27.7937 24.4675 26.9012 22.2737 26.53 21.3812C26.1675 20.5112 25.8012 20.6287 25.5275 20.615C25.2427 20.6031 24.9576 20.5981 24.6725 20.6C24.3762 20.6 23.8925 20.7112 23.485 21.1575C23.0762 21.6037 21.925 22.6825 21.925 24.8762C21.925 27.07 23.5212 29.1887 23.745 29.4875C23.9675 29.785 26.8875 34.2875 31.3587 36.2175C32.4212 36.6762 33.2525 36.9512 33.9 37.1562C34.9675 37.495 35.94 37.4475 36.7075 37.3325C37.5637 37.205 39.345 36.255 39.7162 35.2137C40.0875 34.1725 40.0875 33.28 39.9762 33.0937Z" fill="black"/>
</g>
<defs>
<clipPath id="clip0_19_10">
<rect width="60" height="60" fill="white"/>
</clipPath>
</defs>
</svg>
